<mxfile host="app.diagrams.net" modified="2023-02-04T16:22:43.867Z" agent="5.0 (Windows NT 10.0; Win64; x64) AppleWebKit/537.36 (KHTML, like Gecko) Chrome/109.0.0.0 Safari/537.36" etag="Mr0EifvHkBR0VZVfBiC_" version="20.6.0" type="github">
  <diagram name="Page-1" id="e7e014a7-5840-1c2e-5031-d8a46d1fe8dd">
    <mxGraphModel dx="1038" dy="547" grid="0" gridSize="10" guides="1" tooltips="1" connect="1" arrows="1" fold="1" page="1" pageScale="1" pageWidth="1169" pageHeight="826" background="none" math="0" shadow="0">
      <root>
        <mxCell id="0" />
        <mxCell id="1" parent="0" />
        <mxCell id="2" value="UMP模块" style="swimlane;whiteSpace=wrap" parent="1" vertex="1">
          <mxGeometry x="164.5" y="130" width="215.5" height="520" as="geometry" />
        </mxCell>
        <mxCell id="5" value="" style="ellipse;shape=startState;fillColor=#000000;strokeColor=#ff0000;" parent="2" vertex="1">
          <mxGeometry x="92.75" y="40" width="30" height="30" as="geometry" />
        </mxCell>
        <mxCell id="dYdloKsWV2ZYAsqRrxFL-44" value="" style="edgeStyle=none;rounded=0;orthogonalLoop=1;jettySize=auto;html=1;strokeColor=#1A1A1A;startArrow=classic;startFill=1;endArrow=none;endFill=0;" edge="1" parent="2">
          <mxGeometry relative="1" as="geometry">
            <mxPoint x="107.5" y="100" as="sourcePoint" />
            <mxPoint x="107.5" y="60" as="targetPoint" />
          </mxGeometry>
        </mxCell>
        <mxCell id="dYdloKsWV2ZYAsqRrxFL-45" value="定时任务启动" style="" vertex="1" parent="2">
          <mxGeometry x="52.75" y="102" width="110" height="50" as="geometry" />
        </mxCell>
        <mxCell id="dYdloKsWV2ZYAsqRrxFL-63" value="页面更新显示信息" style="rounded=0;whiteSpace=wrap;html=1;" vertex="1" parent="2">
          <mxGeometry x="54" y="310" width="107.5" height="50" as="geometry" />
        </mxCell>
        <mxCell id="dYdloKsWV2ZYAsqRrxFL-67" value="" style="ellipse;html=1;shape=endState;fillColor=#000000;strokeColor=#ff0000;" vertex="1" parent="2">
          <mxGeometry x="92.5" y="420" width="30" height="30" as="geometry" />
        </mxCell>
        <mxCell id="dYdloKsWV2ZYAsqRrxFL-68" value="" style="endArrow=classic;html=1;rounded=0;strokeColor=#1A1A1A;exitX=0.501;exitY=1.036;exitDx=0;exitDy=0;exitPerimeter=0;entryX=0.5;entryY=0;entryDx=0;entryDy=0;" edge="1" parent="2" source="dYdloKsWV2ZYAsqRrxFL-63" target="dYdloKsWV2ZYAsqRrxFL-67">
          <mxGeometry width="50" height="50" relative="1" as="geometry">
            <mxPoint x="65.5" y="450" as="sourcePoint" />
            <mxPoint x="115.5" y="400" as="targetPoint" />
          </mxGeometry>
        </mxCell>
        <mxCell id="3" value="Agent模块" style="swimlane;whiteSpace=wrap" parent="1" vertex="1">
          <mxGeometry x="380" y="130" width="210" height="520" as="geometry" />
        </mxCell>
        <mxCell id="15" value="查询容量、状态信息" style="" parent="3" vertex="1">
          <mxGeometry x="50" y="102" width="110" height="50" as="geometry" />
        </mxCell>
        <mxCell id="dYdloKsWV2ZYAsqRrxFL-56" value="容量是否不足" style="rhombus;whiteSpace=wrap;html=1;" vertex="1" parent="3">
          <mxGeometry x="48" y="200" width="105" height="60" as="geometry" />
        </mxCell>
        <mxCell id="dYdloKsWV2ZYAsqRrxFL-57" value="" style="endArrow=classic;html=1;rounded=0;strokeColor=#1A1A1A;exitX=0.458;exitY=0.988;exitDx=0;exitDy=0;exitPerimeter=0;entryX=0.5;entryY=0;entryDx=0;entryDy=0;" edge="1" parent="3" source="15" target="dYdloKsWV2ZYAsqRrxFL-56">
          <mxGeometry width="50" height="50" relative="1" as="geometry">
            <mxPoint x="120" y="210" as="sourcePoint" />
            <mxPoint x="100" y="210" as="targetPoint" />
          </mxGeometry>
        </mxCell>
        <mxCell id="dYdloKsWV2ZYAsqRrxFL-58" value="不产生报警" style="rounded=0;whiteSpace=wrap;html=1;" vertex="1" parent="3">
          <mxGeometry x="20" y="290" width="70" height="40" as="geometry" />
        </mxCell>
        <mxCell id="dYdloKsWV2ZYAsqRrxFL-60" value="产生报警" style="rounded=0;whiteSpace=wrap;html=1;" vertex="1" parent="3">
          <mxGeometry x="120" y="290" width="70" height="40" as="geometry" />
        </mxCell>
        <mxCell id="dYdloKsWV2ZYAsqRrxFL-61" value="是" style="endArrow=classic;html=1;rounded=0;strokeColor=#1A1A1A;exitX=1;exitY=0.5;exitDx=0;exitDy=0;entryX=0.611;entryY=-0.025;entryDx=0;entryDy=0;entryPerimeter=0;" edge="1" parent="3" source="dYdloKsWV2ZYAsqRrxFL-56" target="dYdloKsWV2ZYAsqRrxFL-60">
          <mxGeometry width="50" height="50" relative="1" as="geometry">
            <mxPoint x="160" y="240" as="sourcePoint" />
            <mxPoint x="210" y="190" as="targetPoint" />
          </mxGeometry>
        </mxCell>
        <mxCell id="dYdloKsWV2ZYAsqRrxFL-62" value="否" style="endArrow=classic;html=1;rounded=0;strokeColor=#1A1A1A;exitX=0;exitY=0.5;exitDx=0;exitDy=0;entryX=0.143;entryY=-0.005;entryDx=0;entryDy=0;entryPerimeter=0;" edge="1" parent="3" source="dYdloKsWV2ZYAsqRrxFL-56" target="dYdloKsWV2ZYAsqRrxFL-58">
          <mxGeometry width="50" height="50" relative="1" as="geometry">
            <mxPoint x="20" y="230" as="sourcePoint" />
            <mxPoint x="70" y="180" as="targetPoint" />
          </mxGeometry>
        </mxCell>
        <mxCell id="dYdloKsWV2ZYAsqRrxFL-65" value="" style="endArrow=classic;html=1;rounded=0;strokeColor=#1A1A1A;exitX=0.429;exitY=1;exitDx=0;exitDy=0;exitPerimeter=0;" edge="1" parent="3" source="dYdloKsWV2ZYAsqRrxFL-60">
          <mxGeometry width="50" height="50" relative="1" as="geometry">
            <mxPoint x="120" y="450" as="sourcePoint" />
            <mxPoint x="-50" y="350" as="targetPoint" />
          </mxGeometry>
        </mxCell>
        <mxCell id="dYdloKsWV2ZYAsqRrxFL-55" value="" style="endArrow=classic;html=1;rounded=0;strokeColor=#1A1A1A;exitX=1.04;exitY=0.54;exitDx=0;exitDy=0;exitPerimeter=0;entryX=-0.015;entryY=0.492;entryDx=0;entryDy=0;entryPerimeter=0;" edge="1" parent="1" source="dYdloKsWV2ZYAsqRrxFL-45" target="15">
          <mxGeometry width="50" height="50" relative="1" as="geometry">
            <mxPoint x="330" y="370" as="sourcePoint" />
            <mxPoint x="380" y="320" as="targetPoint" />
            <Array as="points">
              <mxPoint x="330" y="257" />
            </Array>
          </mxGeometry>
        </mxCell>
        <mxCell id="dYdloKsWV2ZYAsqRrxFL-64" value="" style="endArrow=classic;html=1;rounded=0;strokeColor=#1A1A1A;exitX=0.474;exitY=1.015;exitDx=0;exitDy=0;exitPerimeter=0;entryX=0.993;entryY=0.668;entryDx=0;entryDy=0;entryPerimeter=0;" edge="1" parent="1" source="dYdloKsWV2ZYAsqRrxFL-58" target="dYdloKsWV2ZYAsqRrxFL-63">
          <mxGeometry width="50" height="50" relative="1" as="geometry">
            <mxPoint x="410" y="510" as="sourcePoint" />
            <mxPoint x="460" y="460" as="targetPoint" />
          </mxGeometry>
        </mxCell>
      </root>
    </mxGraphModel>
  </diagram>
</mxfile>
